<svg xmlns="http://www.w3.org/2000/svg" viewBox="0 0 138 95.65"><defs><style>.cls-1,.cls-3{fill:#fff;}.cls-10,.cls-11,.cls-12,.cls-13,.cls-15,.cls-16,.cls-18,.cls-19,.cls-2,.cls-9{fill:none;}.cls-2{stroke:#993;}.cls-10,.cls-12,.cls-16,.cls-18,.cls-19,.cls-2,.cls-9{stroke-miterlimit:10;}.cls-18,.cls-2{stroke-width:2px;}.cls-3{font-size:17.48px;font-family:MyriadPro-Regular, Myriad Pro;}.cls-4{letter-spacing:-0.02em;}.cls-5{letter-spacing:0em;}.cls-6{letter-spacing:0em;}.cls-7{letter-spacing:-0.03em;}.cls-8{letter-spacing:-0.08em;}.cls-9{stroke:#fffefd;}.cls-10,.cls-12,.cls-18{stroke:#fff;}.cls-11{opacity:0.28;}.cls-12{stroke-width:3px;}.cls-13{opacity:0.36;}.cls-14{fill:#fffdfd;}.cls-16,.cls-19{stroke:#ae892a;}.cls-16{stroke-width:15px;}.cls-17{fill:#fffefd;}</style></defs><title>Asset 10</title><g id="Layer_2" data-name="Layer 2"><g id="Layer_1-2" data-name="Layer 1"><circle class="cls-1" cx="68" cy="88.65" r="1"/><line class="cls-2" x1="7" y1="76.65" x2="129" y2="76.65"/><text class="cls-3" transform="translate(9 74.28) scale(1.18 1)">H<tspan class="cls-4" x="11.4" y="0">O</tspan><tspan class="cls-5" x="23" y="0">TEL </tspan><tspan class="cls-6" x="52.25" y="0">R</tspan><tspan class="cls-7" x="61.7" y="0">O</tspan><tspan class="cls-8" x="73.26" y="0">Y</tspan><tspan x="81.3" y="0">AL</tspan></text><path class="cls-9" d="M81.09,88c2,1,4,.83,4.69,0s.11-1.79,0-2a4,4,0,0,0-2.34-2,5.1,5.1,0,0,0,2.34-1c.43-.34,1.44-1.17,1.18-2-.2-.67-1-1-1.18-1-1.06-.37-3.52,1-3.52,1a4.44,4.44,0,0,0-1.17,2,5.75,5.75,0,0,0,0,2h0l.17-.07.11,0,2.07-.9a8,8,0,0,0-2.35,1c-1.2.78-1.32,1.37-2.35,2a6.88,6.88,0,0,1-3.52,1c-.38,0-3.4,0-4.7-2A3.9,3.9,0,0,1,71.7,80.8a5.72,5.72,0,0,1,3.52-1"/><path class="cls-10" d="M54.56,88c-1.92,1-3.79.83-4.42,0a2.32,2.32,0,0,1,0-2,3.9,3.9,0,0,1,2.21-2,4.74,4.74,0,0,1-2.21-1c-.39-.34-1.34-1.17-1.1-2a1.83,1.83,0,0,1,1.1-1c1-.37,3.32,1,3.32,1a4.52,4.52,0,0,1,1.1,2,6.38,6.38,0,0,1,0,2h0l-.15-.07-.11,0-1.95-.9a7.26,7.26,0,0,1,2.21,1c1.13.78,1.25,1.37,2.21,2a6.21,6.21,0,0,0,3.32,1c.35,0,3.19,0,4.42-2A4.06,4.06,0,0,0,63.4,80.8a5.15,5.15,0,0,0-3.31-1"/><rect class="cls-11" x="7.66" y="29.65" width="68.34" height="65.52"/><path class="cls-12" d="M49.67,18.25l.33-.19L67,8.3H68.7l17.38,10.1V39.17L68.65,49.29H66.92l-17.28-10C49.65,30,49.66,27.62,49.67,18.25Z"/><path class="cls-13" d="M71.34,1.46l-.6-.29A3.84,3.84,0,0,1,71,2.65a3.84,3.84,0,0,0-.26-1.48A22.25,22.25,0,0,0,68.62.41,3.07,3.07,0,0,1,68,.14V.76a6.7,6.7,0,0,0,4,2.89C72.73,2.92,71.86,2.19,71.34,1.46Z"/><path class="cls-13" d="M72,3.65a5.2,5.2,0,0,0,1.44-1.07,21.13,21.13,0,0,0-2.1-1.12C71.86,2.19,72.73,2.92,72,3.65Z"/><path class="cls-13" d="M68,.14,67.77,0A2.3,2.3,0,0,0,68,.76Z"/><path class="cls-10" d="M54.16,20.42,67.9,11.65l14,8.73L82,38,68.14,46.65,54,38Q54.08,29.21,54.16,20.42Z"/><polygon class="cls-1" points="60.41 20.71 60.41 37.26 57.63 37.26 57.63 38.59 66.92 38.59 66.92 37.26 63.92 37.23 63.95 20.71 66.92 20.71 66.92 19.7 57.63 19.7 57.63 20.68 60.41 20.71"/><polygon class="cls-14" points="69 20.65 71.56 20.65 71.56 37.2 69.13 37.2 69.13 38.59 78.32 38.59 78.32 37.32 75.32 37.26 75.41 20.65 78.32 20.65 78.32 19.61 69 19.61 69 20.65"/><rect class="cls-1" x="63.93" y="28.16" width="7.62" height="1.1"/><path class="cls-10" d="M23,31.6c-.52-.18-3.18-1.09-4,0-.1.12-.48.69,0,2a3.54,3.54,0,0,1-3-1,3.31,3.31,0,0,1,0-4c1.19-1.44,4.55-1.33,8,1a74.61,74.61,0,0,1,6,5q2.2,2,4,4l1,1a8.52,8.52,0,0,1,3-3,6.69,6.69,0,0,1,5-1,4.49,4.49,0,0,1,3,2,4.06,4.06,0,0,1,0,4,4.6,4.6,0,0,1-3,2,7.87,7.87,0,0,1-6-1,24.06,24.06,0,0,1-6,6,6.94,6.94,0,0,1-2,1,6.51,6.51,0,0,1-6-1,6.31,6.31,0,0,1-2-5,4.13,4.13,0,0,1,1-3,3.56,3.56,0,0,1,3-1,3.75,3.75,0,0,1,3,3,3.37,3.37,0,0,0-3,0,2.77,2.77,0,0,0-1,1c-.56.95-.67,2.43,0,3,1.08.93,3.77-.85,4-1,.95-.65,1.2-1.13,3-3,.83-.87,1.54-1.56,2-2l-7-3a8.93,8.93,0,0,0-6,0,9.65,9.65,0,0,0-3,2,8.7,8.7,0,0,0-3,4c-.63,2,.71,3.3,0,4s-2.95.25-4-1c-1.94-2.31.8-6.7,1-7a10.16,10.16,0,0,1,3-3,12.61,12.61,0,0,1,5-2c5.85-1.12,10.67,2.62,11,2s-3.73-3.18-5-4A8.46,8.46,0,0,0,23,31.6Z"/><path class="cls-15" d="M39,41.65c-.19-.66,1.09-1.6,2-2,.18-.08,2.21-.94,3,0a1.8,1.8,0,0,1,0,2C43,43.2,39.28,42.64,39,41.65Z"/><path class="cls-10" d="M113.22,31.6c.52-.18,3.19-1.09,4,0,.1.12.49.69,0,2a3.57,3.57,0,0,0,3-1,3.28,3.28,0,0,0,0-4c-1.19-1.44-4.57-1.33-8.05,1a74.81,74.81,0,0,0-6,5q-2.22,2-4,4l-1,1a8.44,8.44,0,0,0-3-3,6.76,6.76,0,0,0-5-1,4.5,4.5,0,0,0-3,2,4,4,0,0,0,0,4,4.63,4.63,0,0,0,3,2,8,8,0,0,0,6-1,24.21,24.21,0,0,0,6,6,7.07,7.07,0,0,0,2,1,6.59,6.59,0,0,0,6-1,6.29,6.29,0,0,0,2-5,4.1,4.1,0,0,0-1-3,3.59,3.59,0,0,0-3-1,3.77,3.77,0,0,0-3,3,3.42,3.42,0,0,1,3,0,2.77,2.77,0,0,1,1,1c.56.95.67,2.43,0,3-1.09.93-3.79-.85-4-1-1-.65-1.21-1.13-3-3-.84-.87-1.55-1.56-2-2l7-3a9,9,0,0,1,6,0,9.88,9.88,0,0,1,3,2,8.67,8.67,0,0,1,3,4c.63,2-.72,3.3,0,4s3,.25,4-1c1.94-2.31-.81-6.7-1-7a10.29,10.29,0,0,0-3-3,12.78,12.78,0,0,0-5-2c-5.88-1.12-10.74,2.62-11.07,2s3.75-3.18,5-4A8.49,8.49,0,0,1,113.22,31.6Z"/><path class="cls-10" d="M54.84,49.65c-1.68-1-3.32-.82-3.87,0a2.43,2.43,0,0,0,0,2,3.53,3.53,0,0,0,1.94,2,3.74,3.74,0,0,0-1.94,1c-.35.34-1.19,1.15-1,2a1.62,1.62,0,0,0,1,1c.88.36,2.91-1,2.91-1a4.58,4.58,0,0,0,1-2,6.71,6.71,0,0,0,0-2h0l-.13.07-.09.05-1.71.88a6.13,6.13,0,0,0,1.93-1c1-.77,1.1-1.34,1.94-2a5,5,0,0,1,2.91-1c.31,0,2.8,0,3.88,2a4.28,4.28,0,0,1-1,5,4.21,4.21,0,0,1-2.91,1"/><path class="cls-10" d="M58.79,52.65a2.53,2.53,0,0,1,0,2,2.18,2.18,0,0,1-.95,1,2,2,0,0,1-1.89,0,3.69,3.69,0,0,1-.94-1h0"/><polyline class="cls-16" points="47 54.65 47 54.65 47 54.65"/><circle class="cls-1" cx="47" cy="53.65" r="1"/><path class="cls-10" d="M81.44,49.65c1.92-1,3.79-.82,4.42,0s.1,1.75,0,2a3.9,3.9,0,0,1-2.21,2,4.64,4.64,0,0,1,2.21,1c.39.34,1.34,1.15,1.1,2a1.79,1.79,0,0,1-1.1,1c-1,.36-3.32-1-3.32-1a4.45,4.45,0,0,1-1.1-2,6.06,6.06,0,0,1,0-2h0l.15.07.11.05,2,.88a7.37,7.37,0,0,1-2.21-1c-1.13-.77-1.25-1.34-2.21-2a6.31,6.31,0,0,0-3.32-1c-.35,0-3.19,0-4.42,2a3.92,3.92,0,0,0,1.11,5,5.26,5.26,0,0,0,3.31,1"/><circle class="cls-17" cx="89" cy="53.65" r="1"/><line class="cls-18" x1="92" y1="53.65" x2="129" y2="53.65"/><line class="cls-18" x1="7" y1="53.65" x2="44" y2="53.65"/><line class="cls-10" x1="7" y1="59.65" x2="129" y2="59.65"/><line class="cls-18" x1="129" y1="76.65" x2="7" y2="76.65"/><rect class="cls-19" x="0.5" y="2.15" width="137" height="93"/></g></g></svg>